<svg width="75" height="75" viewBox="0 0 75 75" fill="none" xmlns="http://www.w3.org/2000/svg">
<path d="M65.625 0H9.375C4.2041 0 0 4.2041 0 9.375V51.5625C0 56.7334 4.2041 60.9375 9.375 60.9375H23.4375V73.2422C23.4375 74.2822 24.2871 75 25.1953 75C25.5469 75 25.9131 74.8975 26.2354 74.6484L44.5312 60.9375H65.625C70.7959 60.9375 75 56.7334 75 51.5625V9.375C75 4.2041 70.7959 0 65.625 0ZM67.9688 51.5625C67.9688 52.8516 66.9141 53.9062 65.625 53.9062H42.1875L40.3125 55.3125L30.4688 62.6953V53.9062H9.375C8.08594 53.9062 7.03125 52.8516 7.03125 51.5625V9.375C7.03125 8.08594 8.08594 7.03125 9.375 7.03125H65.625C66.9141 7.03125 67.9688 8.08594 67.9688 9.375V51.5625Z" fill="#606770"/>
</svg>
