<svg width="77" height="77" viewBox="0 0 77 77" fill="none" xmlns="http://www.w3.org/2000/svg">
<path d="M73.7523 42.8481C75.2065 40.9623 76 38.5 76 35.4924C75.9999 29.9737 71.3018 24.8619 65.3466 24.8619H55.0707C56.3481 22.3177 58.1022 19.162 58.1022 14.6348C58.1024 6.07891 54.6892 1 45.9575 1C41.5637 1 39.9332 6.55439 39.0978 10.8479C38.5987 13.4129 38.1272 15.8359 36.6771 17.286C33.2245 20.7388 27.9531 29.125 24.7864 30.8279C24.4658 30.9629 24.0561 31.0693 23.6099 31.1535C22.7642 29.9283 21.3512 29.125 19.75 29.125H5.6875C3.09868 29.125 1 31.2237 1 33.8125V71.3125C1 73.9013 3.09868 76 5.6875 76H19.75C22.3388 76 24.4375 73.9013 24.4375 71.3125V70.0322C29.1975 70.0322 39.1866 76.001 50.4319 75.9979C51.2383 75.9984 55.947 76.0023 56.4396 75.9979C65.1235 76 69.9536 70.7411 69.6723 62.8447C71.8882 60.2479 72.9739 56.4965 72.342 53.0148C74.1666 50.1546 74.5577 46.1198 73.7523 42.8481ZM5.6875 71.3125V33.8125H19.75V71.3125H5.6875ZM67.7994 41.4812C70.1406 43.1875 70.1406 50.2188 66.978 51.8326C68.9588 55.1666 67.1761 59.6279 64.7786 60.914C65.9934 68.6103 62.0011 71.2567 56.3979 71.3106C55.9127 71.315 50.9418 71.3106 50.432 71.3106C39.7491 71.3106 30.6944 65.3447 24.4376 65.3447V35.5154C29.9613 35.5154 35.0292 25.5634 39.9918 20.6006C44.4662 16.1263 42.9747 8.6689 45.9577 5.68604C53.415 5.68604 53.415 10.8887 53.415 14.6349C53.415 20.8149 48.9407 23.5836 48.9407 29.5495H65.3468C68.6764 29.5495 71.298 32.5325 71.3126 35.5154C71.3272 38.4982 70.1406 40.8437 67.7994 41.4812Z" fill="#606770" stroke="#606770" stroke-width="2"/>
</svg>
