<svg width="88" height="77" viewBox="0 0 88 77" fill="none" xmlns="http://www.w3.org/2000/svg">
<path d="M84.7717 29.7622L58.6726 2.81144C55.0106 -0.9702 48.4537 1.54875 48.4537 6.86174V19.7749C23.9184 20.0657 1 24.4526 1 49.5142C1 63.4273 9.28067 71.5207 14.2173 75.0861C17.8109 77.6821 22.8214 74.3549 21.5845 70.0309C15.9682 50.3487 25.5536 48.1639 48.4537 47.8985V60.7657C48.4537 66.0741 55.0068 68.6017 58.6726 64.8159L84.7718 37.8628C86.9651 35.5967 86.9651 32.0283 84.7717 29.7622V29.7622ZM81.3421 34.6226L55.2425 61.5757C54.511 62.3316 53.1991 61.8291 53.1991 60.7657V43.1875C27.7823 43.1875 9.40628 44.6094 17.0186 71.2686C11.6771 67.4102 5.74537 60.4126 5.74537 49.5142C5.74537 26.0752 29.9002 24.4375 53.1991 24.4375V6.85939C53.1991 5.79562 54.5116 5.29347 55.2425 6.04933L81.3421 33.0025C81.554 33.2202 81.6724 33.5105 81.6724 33.8125C81.6724 34.1146 81.554 34.4049 81.3421 34.6226V34.6226Z" fill="#606770" stroke="#606770" stroke-width="2"/>
</svg>
